{"asset": {"version": "2.0"}, "scene": 0, "scenes": [{"nodes": [0, 1, 2, 3, 4, 5, 6, 7, 8]}], "nodes": [{"name": "Banner Camera", "camera": 0, "translation": [0, 1, 44.786]}, {"name": "Logo", "mesh": 0, "translation": [0, 1, 0]}, {"name": "top_pepperoni", "mesh": 1, "translation": [11.0, 1.0, 0.0]}, {"name": "top_mushroom", "mesh": 2, "translation": [6.85838782044607, -2.634578883042722, 7.794379567823019]}, {"name": "top_olive", "mesh": 3, "translation": [-2.4477302735194577, -3.5322457352564873, 9.719432344707469]}, {"name": "top_onion", "mesh": 4, "translation": [-9.91065754692661, -1.0170391078575935, 4.325554325739034]}, {"name": "top_pepper", "mesh": 5, "translation": [-9.910657546926611, 3.017039107857592, -4.3255543257390325]}, {"name": "top_sausage", "mesh": 6, "translation": [-2.4477302735194604, 5.532245735256487, -9.719432344707469]}, {"name": "top_anchovy", "mesh": 7, "translation": [6.858387820446067, 4.634578883042722, -7.794379567823019]}], "meshes": [{"name": "mesh_logo", "primitives": [{"attributes": {"POSITION": 0, "NORMAL": 2, "TEXCOORD_0": 1}, "indices": 3, "material": 0}]}, {"name": "mesh_pepperoni", "primitives": [{"attributes": {"POSITION": 4, "NORMAL": 6, "TEXCOORD_0": 5}, "indices": 7, "material": 1}]}, {"name": "mesh_mushroom", "primitives": [{"attributes": {"POSITION": 8, "NORMAL": 10, "TEXCOORD_0": 9}, "indices": 11, "material": 2}]}, {"name": "mesh_olive", "primitives": [{"attributes": {"POSITION": 12, "NORMAL": 14, "TEXCOORD_0": 13}, "indices": 15, "material": 3}]}, {"name": "mesh_onion", "primitives": [{"attributes": {"POSITION": 16, "NORMAL": 18, "TEXCOORD_0": 17}, "indices": 19, "material": 4}]}, {"name": "mesh_pepper", "primitives": [{"attributes": {"POSITION": 20, "NORMAL": 22, "TEXCOORD_0": 21}, "indices": 23, "material": 5}]}, {"name": "mesh_sausage", "primitives": [{"attributes": {"POSITION": 24, "NORMAL": 26, "TEXCOORD_0": 25}, "indices": 27, "material": 6}]}, {"name": "mesh_anchovy", "primitives": [{"attributes": {"POSITION": 28, "NORMAL": 30, "TEXCOORD_0": 29}, "indices": 31, "material": 7}]}], "materials": [{"name": "mat_logo", "pbrMetallicRoughness": {"baseColorTexture": {"index": 0}, "metallicFactor": 0, "roughnessFactor": 1}, "doubleSided": true, "alphaMode": "MASK", "alphaCutoff": 0.5}, {"name": "mat_pepperoni", "pbrMetallicRoughness": {"baseColorTexture": {"index": 1}, "metallicFactor": 0, "roughnessFactor": 1}, "doubleSided": true, "alphaMode": "MASK", "alphaCutoff": 0.5}, {"name": "mat_mushroom", "pbrMetallicRoughness": {"baseColorTexture": {"index": 2}, "metallicFactor": 0, "roughnessFactor": 1}, "doubleSided": true, "alphaMode": "MASK", "alphaCutoff": 0.5}, {"name": "mat_olive", "pbrMetallicRoughness": {"baseColorTexture": {"index": 3}, "metallicFactor": 0, "roughnessFactor": 1}, "doubleSided": true, "alphaMode": "MASK", "alphaCutoff": 0.5}, {"name": "mat_onion", "pbrMetallicRoughness": {"baseColorTexture": {"index": 4}, "metallicFactor": 0, "roughnessFactor": 1}, "doubleSided": true, "alphaMode": "MASK", "alphaCutoff": 0.5}, {"name": "mat_pepper", "pbrMetallicRoughness": {"baseColorTexture": {"index": 5}, "metallicFactor": 0, "roughnessFactor": 1}, "doubleSided": true, "alphaMode": "MASK", "alphaCutoff": 0.5}, {"name": "mat_sausage", "pbrMetallicRoughness": {"baseColorTexture": {"index": 6}, "metallicFactor": 0, "roughnessFactor": 1}, "doubleSided": true, "alphaMode": "MASK", "alphaCutoff": 0.5}, {"name": "mat_anchovy", "pbrMetallicRoughness": {"baseColorTexture": {"index": 7}, "metallicFactor": 0, "roughnessFactor": 1}, "doubleSided": true, "alphaMode": "MASK", "alphaCutoff": 0.5}], "textures": [{"source": 0, "sampler": 0}, {"source": 1, "sampler": 1}, {"source": 2, "sampler": 2}, {"source": 3, "sampler": 3}, {"source": 4, "sampler": 4}, {"source": 5, "sampler": 5}, {"source": 6, "sampler": 6}, {"source": 7, "sampler": 7}], "images": [{"uri": "tex_logo.png"}, {"uri": "tex_pepperoni.png"}, {"uri": "tex_mushroom.png"}, {"uri": "tex_olive.png"}, {"uri": "tex_onion.png"}, {"uri": "tex_pepper.png"}, {"uri": "tex_sausage.png"}, {"uri": "tex_anchovy.png"}], "samplers": [{"magFilter": 9729, "minFilter": 9729, "wrapS": 33071, "wrapT": 33071}, {"magFilter": 9729, "minFilter": 9729, "wrapS": 33071, "wrapT": 33071}, {"magFilter": 9729, "minFilter": 9729, "wrapS": 33071, "wrapT": 33071}, {"magFilter": 9729, "minFilter": 9729, "wrapS": 33071, "wrapT": 33071}, {"magFilter": 9729, "minFilter": 9729, "wrapS": 33071, "wrapT": 33071}, {"magFilter": 9729, "minFilter": 9729, "wrapS": 33071, "wrapT": 33071}, {"magFilter": 9729, "minFilter": 9729, "wrapS": 33071, "wrapT": 33071}, {"magFilter": 9729, "minFilter": 9729, "wrapS": 33071, "wrapT": 33071}], "accessors": [{"bufferView": 0, "componentType": 5126, "count": 4, "type": "VEC3", "min": [-10, -10, 0], "max": [10, 10, 0]}, {"bufferView": 1, "componentType": 5126, "count": 4, "type": "VEC2"}, {"bufferView": 2, "componentType": 5126, "count": 4, "type": "VEC3", "min": [0, 0, 1], "max": [0, 0, 1]}, {"bufferView": 3, "componentType": 5123, "count": 6, "type": "SCALAR"}, {"bufferView": 4, "componentType": 5126, "count": 4, "type": "VEC3", "min": [-1.6, -1.6, 0], "max": [1.6, 1.6, 0]}, {"bufferView": 5, "componentType": 5126, "count": 4, "type": "VEC2"}, {"bufferView": 6, "componentType": 5126, "count": 4, "type": "VEC3", "min": [0, 0, 1], "max": [0, 0, 1]}, {"bufferView": 7, "componentType": 5123, "count": 6, "type": "SCALAR"}, {"bufferView": 8, "componentType": 5126, "count": 4, "type": "VEC3", "min": [-1.6, -1.6, 0], "max": [1.6, 1.6, 0]}, {"bufferView": 9, "componentType": 5126, "count": 4, "type": "VEC2"}, {"bufferView": 10, "componentType": 5126, "count": 4, "type": "VEC3", "min": [0, 0, 1], "max": [0, 0, 1]}, {"bufferView": 11, "componentType": 5123, "count": 6, "type": "SCALAR"}, {"bufferView": 12, "componentType": 5126, "count": 4, "type": "VEC3", "min": [-1.6, -1.6, 0], "max": [1.6, 1.6, 0]}, {"bufferView": 13, "componentType": 5126, "count": 4, "type": "VEC2"}, {"bufferView": 14, "componentType": 5126, "count": 4, "type": "VEC3", "min": [0, 0, 1], "max": [0, 0, 1]}, {"bufferView": 15, "componentType": 5123, "count": 6, "type": "SCALAR"}, {"bufferView": 16, "componentType": 5126, "count": 4, "type": "VEC3", "min": [-1.6, -1.6, 0], "max": [1.6, 1.6, 0]}, {"bufferView": 17, "componentType": 5126, "count": 4, "type": "VEC2"}, {"bufferView": 18, "componentType": 5126, "count": 4, "type": "VEC3", "min": [0, 0, 1], "max": [0, 0, 1]}, {"bufferView": 19, "componentType": 5123, "count": 6, "type": "SCALAR"}, {"bufferView": 20, "componentType": 5126, "count": 4, "type": "VEC3", "min": [-1.6, -1.6, 0], "max": [1.6, 1.6, 0]}, {"bufferView": 21, "componentType": 5126, "count": 4, "type": "VEC2"}, {"bufferView": 22, "componentType": 5126, "count": 4, "type": "VEC3", "min": [0, 0, 1], "max": [0, 0, 1]}, {"bufferView": 23, "componentType": 5123, "count": 6, "type": "SCALAR"}, {"bufferView": 24, "componentType": 5126, "count": 4, "type": "VEC3", "min": [-1.6, -1.6, 0], "max": [1.6, 1.6, 0]}, {"bufferView": 25, "componentType": 5126, "count": 4, "type": "VEC2"}, {"bufferView": 26, "componentType": 5126, "count": 4, "type": "VEC3", "min": [0, 0, 1], "max": [0, 0, 1]}, {"bufferView": 27, "componentType": 5123, "count": 6, "type": "SCALAR"}, {"bufferView": 28, "componentType": 5126, "count": 4, "type": "VEC3", "min": [-1.6, -1.6, 0], "max": [1.6, 1.6, 0]}, {"bufferView": 29, "componentType": 5126, "count": 4, "type": "VEC2"}, {"bufferView": 30, "componentType": 5126, "count": 4, "type": "VEC3", "min": [0, 0, 1], "max": [0, 0, 1]}, {"bufferView": 31, "componentType": 5123, "count": 6, "type": "SCALAR"}, {"bufferView": 32, "componentType": 5126, "count": 25, "type": "SCALAR", "min": [0.0], "max": [8.0]}, {"bufferView": 33, "componentType": 5126, "count": 25, "type": "VEC3"}, {"bufferView": 34, "componentType": 5126, "count": 25, "type": "SCALAR", "min": [0.0], "max": [8.0]}, {"bufferView": 35, "componentType": 5126, "count": 25, "type": "VEC3"}, {"bufferView": 36, "componentType": 5126, "count": 25, "type": "SCALAR", "min": [0.0], "max": [8.0]}, {"bufferView": 37, "componentType": 5126, "count": 25, "type": "VEC3"}, {"bufferView": 38, "componentType": 5126, "count": 25, "type": "SCALAR", "min": [0.0], "max": [8.0]}, {"bufferView": 39, "componentType": 5126, "count": 25, "type": "VEC3"}, {"bufferView": 40, "componentType": 5126, "count": 25, "type": "SCALAR", "min": [0.0], "max": [8.0]}, {"bufferView": 41, "componentType": 5126, "count": 25, "type": "VEC3"}, {"bufferView": 42, "componentType": 5126, "count": 25, "type": "SCALAR", "min": [0.0], "max": [8.0]}, {"bufferView": 43, "componentType": 5126, "count": 25, "type": "VEC3"}, {"bufferView": 44, "componentType": 5126, "count": 25, "type": "SCALAR", "min": [0.0], "max": [8.0]}, {"bufferView": 45, "componentType": 5126, "count": 25, "type": "VEC3"}], "bufferViews": [{"buffer": 0, "byteOffset": 0, "byteLength": 48, "target": 34962}, {"buffer": 0, "byteOffset": 48, "byteLength": 32, "target": 34962}, {"buffer": 0, "byteOffset": 80, "byteLength": 48, "target": 34962}, {"buffer": 0, "byteOffset": 128, "byteLength": 12, "target": 34963}, {"buffer": 0, "byteOffset": 140, "byteLength": 48, "target": 34962}, {"buffer": 0, "byteOffset": 188, "byteLength": 32, "target": 34962}, {"buffer": 0, "byteOffset": 220, "byteLength": 48, "target": 34962}, {"buffer": 0, "byteOffset": 268, "byteLength": 12, "target": 34963}, {"buffer": 0, "byteOffset": 280, "byteLength": 48, "target": 34962}, {"buffer": 0, "byteOffset": 328, "byteLength": 32, "target": 34962}, {"buffer": 0, "byteOffset": 360, "byteLength": 48, "target": 34962}, {"buffer": 0, "byteOffset": 408, "byteLength": 12, "target": 34963}, {"buffer": 0, "byteOffset": 420, "byteLength": 48, "target": 34962}, {"buffer": 0, "byteOffset": 468, "byteLength": 32, "target": 34962}, {"buffer": 0, "byteOffset": 500, "byteLength": 48, "target": 34962}, {"buffer": 0, "byteOffset": 548, "byteLength": 12, "target": 34963}, {"buffer": 0, "byteOffset": 560, "byteLength": 48, "target": 34962}, {"buffer": 0, "byteOffset": 608, "byteLength": 32, "target": 34962}, {"buffer": 0, "byteOffset": 640, "byteLength": 48, "target": 34962}, {"buffer": 0, "byteOffset": 688, "byteLength": 12, "target": 34963}, {"buffer": 0, "byteOffset": 700, "byteLength": 48, "target": 34962}, {"buffer": 0, "byteOffset": 748, "byteLength": 32, "target": 34962}, {"buffer": 0, "byteOffset": 780, "byteLength": 48, "target": 34962}, {"buffer": 0, "byteOffset": 828, "byteLength": 12, "target": 34963}, {"buffer": 0, "byteOffset": 840, "byteLength": 48, "target": 34962}, {"buffer": 0, "byteOffset": 888, "byteLength": 32, "target": 34962}, {"buffer": 0, "byteOffset": 920, "byteLength": 48, "target": 34962}, {"buffer": 0, "byteOffset": 968, "byteLength": 12, "target": 34963}, {"buffer": 0, "byteOffset": 980, "byteLength": 48, "target": 34962}, {"buffer": 0, "byteOffset": 1028, "byteLength": 32, "target": 34962}, {"buffer": 0, "byteOffset": 1060, "byteLength": 48, "target": 34962}, {"buffer": 0, "byteOffset": 1108, "byteLength": 12, "target": 34963}, {"buffer": 0, "byteOffset": 1120, "byteLength": 100}, {"buffer": 0, "byteOffset": 1220, "byteLength": 300}, {"buffer": 0, "byteOffset": 1520, "byteLength": 100}, {"buffer": 0, "byteOffset": 1620, "byteLength": 300}, {"buffer": 0, "byteOffset": 1920, "byteLength": 100}, {"buffer": 0, "byteOffset": 2020, "byteLength": 300}, {"buffer": 0, "byteOffset": 2320, "byteLength": 100}, {"buffer": 0, "byteOffset": 2420, "byteLength": 300}, {"buffer": 0, "byteOffset": 2720, "byteLength": 100}, {"buffer": 0, "byteOffset": 2820, "byteLength": 300}, {"buffer": 0, "byteOffset": 3120, "byteLength": 100}, {"buffer": 0, "byteOffset": 3220, "byteLength": 300}, {"buffer": 0, "byteOffset": 3520, "byteLength": 100}, {"buffer": 0, "byteOffset": 3620, "byteLength": 300}], "buffers": [{"byteLength": 3920, "uri": "data:application/octet-stream;base64,"}], "cameras": [{"name": "Banner Camera", "type": "perspective", "perspective": {"aspectRatio": 1.66666666667, "yfov": 0.523599, "zfar": 1000, "znear": 26.5}}], "animations": [{"name": "orbit", "channels": [{"sampler": 0, "target": {"node": 2, "path": "translation"}}, {"sampler": 1, "target": {"node": 3, "path": "translation"}}, {"sampler": 2, "target": {"node": 4, "path": "translation"}}, {"sampler": 3, "target": {"node": 5, "path": "translation"}}, {"sampler": 4, "target": {"node": 6, "path": "translation"}}, {"sampler": 5, "target": {"node": 7, "path": "translation"}}, {"sampler": 6, "target": {"node": 8, "path": "translation"}}], "samplers": [{"input": 32, "output": 33, "interpolation": "LINEAR"}, {"input": 34, "output": 35, "interpolation": "LINEAR"}, {"input": 36, "output": 37, "interpolation": "LINEAR"}, {"input": 38, "output": 39, "interpolation": "LINEAR"}, {"input": 40, "output": 41, "interpolation": "LINEAR"}, {"input": 42, "output": 43, "interpolation": "LINEAR"}, {"input": 44, "output": 45, "interpolation": "LINEAR"}]}]}